<svg xmlns="http://www.w3.org/2000/svg" xmlns:xlink="http://www.w3.org/1999/xlink" x="0" y="0" width="563.5" height="301.5" style="
        width:563.5px;
        height:301.5px;
        background: transparent;
        fill: none;
">
        
        
        <svg xmlns="http://www.w3.org/2000/svg" class="role-diagram-draw-area"><g class="shapes-region" style="stroke: black; fill: none;"><g/></g><g/><g/><g/></svg>
        <svg xmlns="http://www.w3.org/2000/svg" xmlns:xlink="http://www.w3.org/1999/xlink" width="562" height="300" style="width:562px;height:300px;font-family:Asana-Math, Asana;background:transparent;"><g><g><g><g transform="matrix(1,0,0,1,31.75,164.06333740234373)"><path transform="matrix(0.04233,0,0,-0.04233,0,0)" d="M408 700L376 700L337 605L106 79C94 50 74 32 52 30L15 27L15 -3C108 0 108 0 124 0C137 0 137 0 245 -3L245 27L208 30C173 33 160 40 160 56C160 69 174 112 195 162L223 229L511 229L557 114C574 72 578 59 578 50C578 39 562 32 537 30L490 27L490 -3C613 0 613 0 629 0C648 0 648 0 756 -3L756 27L722 30C696 34 685 51 650 132ZM240 269L367 567L493 269ZM307 737L347 737L491 827C524 848 531 856 531 874C531 893 517 908 500 908C485 908 467 897 445 875ZM902 390L846 107C845 99 833 61 833 31C833 6 844 -9 863 -9C898 -9 933 11 1011 74L1042 99L1032 117L987 86C958 66 938 56 927 56C918 56 913 64 913 76C913 102 927 183 956 328L969 390L1076 390L1087 440C1049 436 1015 434 977 434C993 528 1004 577 1022 631L1011 646C991 634 964 622 933 610L908 440C864 419 838 408 820 403L818 390ZM1126 152C1126 46 1171 -11 1254 -11C1309 -11 1369 15 1414 57C1476 116 1520 230 1520 331C1520 425 1470 482 1387 482C1283 482 1126 382 1126 152ZM1350 444C1411 444 1444 399 1444 315C1444 219 1413 113 1369 60C1351 39 1325 27 1294 27C1236 27 1202 72 1202 151C1202 264 1241 387 1290 427C1303 438 1326 444 1350 444ZM2282 103L2256 86C2227 67 2205 56 2195 56C2188 56 2182 65 2182 76C2182 86 2184 95 2189 116L2264 413C2268 430 2271 446 2271 454C2271 471 2261 482 2245 482C2216 482 2178 464 2117 421C2054 376 2019 341 1970 272L2000 409C2004 429 2007 444 2007 451C2007 470 1997 482 1981 482C1951 482 1905 460 1850 418C1806 384 1786 363 1721 275L1754 408C1758 424 1760 439 1760 451C1760 470 1751 482 1737 482C1716 482 1678 461 1604 408L1576 388L1583 368C1620 391 1655 414 1662 414C1673 414 1680 404 1680 389C1680 338 1639 145 1598 2L1601 -9L1669 6L1691 108C1715 219 1742 278 1797 338C1839 384 1884 414 1912 414C1919 414 1923 406 1923 393C1923 358 1901 244 1860 69L1844 2L1849 -9L1918 6L1939 113C1955 194 1989 269 2033 318C2088 379 2138 414 2170 414C2178 414 2183 405 2183 389C2183 365 2180 351 2158 264C2118 105 2102 84 2102 31C2102 6 2113 -9 2132 -9C2158 -9 2194 12 2292 85ZM2346 152C2346 46 2391 -11 2474 -11C2529 -11 2589 15 2634 57C2696 116 2740 230 2740 331C2740 425 2690 482 2607 482C2503 482 2346 382 2346 152ZM2570 444C2631 444 2664 399 2664 315C2664 219 2633 113 2589 60C2571 39 2545 27 2514 27C2456 27 2422 72 2422 151C2422 264 2461 387 2510 427C2523 438 2546 444 2570 444Z" stroke="rgb(0,0,0)" stroke-opacity="1" stroke-width="8" fill="rgb(0,0,0)" fill-opacity="1"></path></g></g><g><g><g><g><g transform="matrix(1,0,0,1,179.48333740234375,142.09666259765623)"><path transform="matrix(0.04233,0,0,-0.04233,0,0)" d="M582 103L237 692L75 692L70 664L105 662C150 660 184 615 185 606L92 102C80 40 74 32 38 28L7 25L2 -3L113 0C125 0 126 0 223 -3L228 25L186 28C146 31 137 39 137 72C137 80 138 91 140 102L220 566L558 -11L608 -11L702 542C723 655 725 659 762 662L799 664L802 691L589 692L584 664L631 662C657 661 667 654 667 638C667 631 584 116 582 103ZM1060 49C973 49 960 104 960 170L960 465L951 469C900 448 848 434 795 428L795 400L832 400C872 400 876 393 876 327L876 159C876 70 881 -12 1017 -12C1062 -12 1102 2 1129 27L1196 89C1196 60 1195 44 1192 -3C1259 0 1260 0 1275 0C1289 0 1289 0 1358 -3L1358 27L1317 30C1283 32 1280 38 1280 102L1280 465L1271 469C1220 448 1168 434 1115 428L1115 400L1152 400C1192 400 1196 393 1196 327L1196 164C1196 126 1147 49 1060 49ZM990 506L1030 506L1174 596C1207 617 1214 625 1214 643C1214 662 1200 677 1183 677C1168 677 1150 666 1128 644ZM1721 330L1744 330C1752 395 1759 432 1768 458C1744 473 1709 482 1672 482C1627 483 1554 463 1497 400C1443 352 1404 241 1404 136C1404 40 1446 -11 1526 -11C1580 -11 1628 9 1683 54L1733 95L1725 115L1710 105C1638 57 1600 40 1565 40C1509 40 1480 80 1480 159C1480 267 1515 371 1564 409C1585 425 1609 433 1640 433C1685 433 1721 414 1721 390ZM2036 722L2024 733C1972 707 1936 698 1864 691L1860 670L1908 670C1932 670 1942 663 1942 648C1942 645 1942 640 1939 622C1928 567 1855 182 1840 132C1827 82 1821 52 1821 31C1821 6 1832 -9 1851 -9C1877 -9 1913 12 2011 85L2001 103L1975 86C1946 67 1924 56 1914 56C1907 56 1901 66 1901 76C1901 82 1902 89 1905 104ZM2390 111L2366 94C2313 56 2265 36 2229 36C2182 36 2153 73 2153 133C2153 158 2156 185 2161 214C2178 218 2287 248 2312 259C2397 296 2436 342 2436 404C2436 451 2402 482 2352 482C2284 496 2174 423 2137 349C2107 299 2077 180 2077 113C2077 35 2121 -11 2193 -11C2250 -11 2306 17 2398 92ZM2175 274C2192 343 2212 386 2241 412C2259 428 2290 440 2314 440C2343 440 2362 420 2362 388C2362 344 2327 297 2275 272C2247 258 2211 247 2166 237ZM2467 152C2467 46 2512 -11 2595 -11C2650 -11 2710 15 2755 57C2817 116 2861 230 2861 331C2861 425 2811 482 2728 482C2624 482 2467 382 2467 152ZM2691 444C2752 444 2785 399 2785 315C2785 219 2754 113 2710 60C2692 39 2666 27 2635 27C2577 27 2543 72 2543 151C2543 264 2582 387 2631 427C2644 438 2667 444 2691 444Z" stroke="rgb(0,0,0)" stroke-opacity="1" stroke-width="8" fill="rgb(0,0,0)" fill-opacity="1"></path></g></g></g></g><g><g></g></g><g><g><g><g transform="matrix(1,0,0,1,179.48333740234375,193.64665039062498)"><path transform="matrix(0.04233,0,0,-0.04233,0,0)" d="M221 334L338 334L470 330L489 375L485 382C404 378 344 376 266 376L229 376L276 646C308 647 391 650 413 650C475 650 516 641 517 626L525 537L549 537C552 601 559 651 570 689C549 691 519 692 501 692C498 692 487 692 463 691L343 690C334 689 160 691 150 691L105 692L102 664L156 662C180 661 191 653 191 635C191 621 187 589 182 559L95 55C91 37 79 30 35 23L30 -3L71 -2C102 -1 164 0 184 0L409 -3C423 -3 448 -2 481 -1L514 0L518 36C520 56 525 86 534 135L539 161L512 161L496 101C486 65 477 53 455 48C435 44 362 39 308 39C267 39 240 40 171 46ZM861 722L849 733C797 707 761 698 689 691L685 670L733 670C757 670 767 663 767 648C767 645 767 640 764 622C753 567 680 182 665 132C652 82 646 52 646 31C646 6 657 -9 676 -9C702 -9 738 12 836 85L826 103L800 86C771 67 749 56 739 56C732 56 726 66 726 76C726 82 727 89 730 104ZM1137 -20C1215 -20 1296 24 1304 36L1324 70L1311 80C1247 42 1224 33 1181 33C1116 33 1062 62 1034 111C1015 144 1008 172 1006 230L1152 230C1221 230 1264 233 1333 244C1334 258 1335 267 1335 279C1335 394 1261 469 1149 469C1112 469 1069 456 1028 432C946 385 913 323 913 219C913 24 1049 -20 1137 -20ZM1246 267C1194 265 1170 264 1134 264C1088 264 1062 265 1008 270C1008 317 1012 339 1025 365C1046 409 1089 436 1137 436C1170 436 1196 423 1214 396C1236 363 1243 334 1246 267ZM1038 506L1078 506L1222 596C1255 617 1262 625 1262 643C1262 662 1248 677 1231 677C1216 677 1198 666 1176 644ZM1490 390L1434 107C1433 99 1421 61 1421 31C1421 6 1432 -9 1451 -9C1486 -9 1521 11 1599 74L1630 99L1620 117L1575 86C1546 66 1526 56 1515 56C1506 56 1501 64 1501 76C1501 102 1515 183 1544 328L1557 390L1664 390L1675 440C1637 436 1603 434 1565 434C1581 528 1592 577 1610 631L1599 646C1579 634 1552 622 1521 610L1496 440C1452 419 1426 408 1408 403L1406 390ZM2065 365C2068 403 2073 435 2081 476C2070 481 2066 482 2061 482C2030 482 1999 458 1963 407C1924 351 1885 291 1869 256L1901 408C1905 425 1907 438 1907 450C1907 470 1899 482 1884 482C1863 482 1825 461 1751 408L1723 388L1730 368L1762 389C1790 407 1801 412 1810 412C1820 412 1827 403 1827 390C1827 332 1784 126 1744 -2L1754 -9C1769 -4 1785 -1 1808 4L1821 6L1847 126C1865 209 1888 262 1932 319C1966 363 1993 384 2015 384C2030 384 2040 379 2051 365ZM2102 152C2102 46 2147 -11 2230 -11C2285 -11 2345 15 2390 57C2452 116 2496 230 2496 331C2496 425 2446 482 2363 482C2259 482 2102 382 2102 152ZM2326 444C2387 444 2420 399 2420 315C2420 219 2389 113 2345 60C2327 39 2301 27 2270 27C2212 27 2178 72 2178 151C2178 264 2217 387 2266 427C2279 438 2302 444 2326 444ZM2552 388L2559 368L2591 389C2628 412 2631 414 2638 414C2649 414 2656 404 2656 389C2656 338 2615 145 2574 2L2581 -9C2606 -2 2629 4 2651 8C2670 134 2691 199 2737 268C2791 352 2866 414 2911 414C2922 414 2928 405 2928 390C2928 372 2925 351 2917 319L2865 107C2856 70 2852 47 2852 31C2852 6 2863 -9 2882 -9C2908 -9 2944 12 3042 85L3032 103L3006 86C2977 67 2955 56 2945 56C2938 56 2932 65 2932 76C2932 81 2933 92 2934 96L3000 372C3007 401 3011 429 3011 446C3011 469 3000 482 2980 482C2938 482 2869 444 2810 389C2772 354 2744 320 2692 247L2730 408C2734 426 2736 438 2736 449C2736 470 2728 482 2713 482C2692 482 2653 460 2580 408ZM3114 148C3109 97 3103 62 3092 16C3130 -2 3164 -11 3199 -11C3248 -11 3294 7 3345 47C3396 87 3417 124 3417 174C3417 228 3385 257 3311 271L3268 279C3208 290 3189 307 3189 348C3189 401 3234 442 3291 442C3332 442 3370 424 3386 397L3386 342L3409 342C3413 377 3417 404 3428 455C3389 474 3361 482 3328 482C3276 482 3215 452 3167 404C3141 377 3130 352 3130 316C3130 260 3161 228 3227 215L3290 203C3334 195 3350 177 3350 138C3350 73 3304 29 3233 29C3198 29 3167 40 3139 64L3139 148Z" stroke="rgb(0,0,0)" stroke-opacity="1" stroke-width="8" fill="rgb(0,0,0)" fill-opacity="1"></path></g></g><g><g transform="matrix(1,0,0,1,326.433349609375,193.37998779296873)"><path transform="matrix(0.04233,0,0,-0.04233,0,0)" d="M146 266C146 526 243 632 301 700L282 726C225 675 60 542 60 266C60 159 85 58 133 -32C168 -99 200 -138 282 -215L301 -194C255 -137 146 -15 146 266Z" stroke="rgb(0,0,0)" stroke-opacity="1" stroke-width="8" fill="rgb(0,0,0)" fill-opacity="1"></path></g></g><g><g transform="matrix(1,0,0,1,340.48333740234375,193.64665039062498)"><path transform="matrix(0.04233,0,0,-0.04233,0,0)" d="M555 243L555 299L51 299L51 243Z" stroke="rgb(0,0,0)" stroke-opacity="1" stroke-width="8" fill="rgb(0,0,0)" fill-opacity="1"></path></g></g><g><g transform="matrix(1,0,0,1,366.0999755859375,193.37998779296873)"><path transform="matrix(0.04233,0,0,-0.04233,0,0)" d="M51 726L32 700C87 636 187 526 187 266C187 -10 83 -131 32 -194L51 -215C104 -165 273 -23 273 265C273 542 108 675 51 726Z" stroke="rgb(0,0,0)" stroke-opacity="1" stroke-width="8" fill="rgb(0,0,0)" fill-opacity="1"></path></g></g></g></g><g><g></g></g><svg x="149.10000610351562" overflow="visible" y="98.75" height="103.85000610351562" width="21.166656494140625"><path d=" M 20.78 4.23 c 0.00 -0.08 -0.13 -0.14 -0.30 -0.14 c -0.38 0.00 -1.10 0.23 -1.27 0.28 c -7.53 2.68 -8.93 8.30 -8.93 18.46 v 1.50 h 4.02 v -3.19 c 0.00 -5.47 0.30 -12.84 5.29 -16.14 c 0.37 -0.24 1.19 -0.54 1.19 -0.76 z  M 10.29 22.83 v 19.50 h 4.02 v -19.50 z  M 14.31 42.33 h -4.02 v 1.47 c 0.00 7.39 -6.82 9.12 -6.86 9.12 v 0.06 c 0.04 0.00 6.86 1.86 6.86 9.23 h 4.02 c 0.00 -2.62 -0.21 -7.14 -7.37 -9.20 c 7.15 -2.00 7.37 -6.55 7.37 -9.20 v -1.47 z  M 10.29 61.52 v 19.50 h 4.02 v -19.50 z" style="fill:rgb(0,0,0);fill-opacity:1;stroke-width:1px;stroke:none;stroke-opacity:1;"></path><path d=" M 20.78 99.62 c 0.00 0.08 -0.13 0.14 -0.30 0.14 c -0.38 0.00 -1.10 -0.23 -1.27 -0.28 c -7.53 -2.68 -8.93 -8.30 -8.93 -18.46 v -1.50 h 4.02 v 3.19 c 0.00 5.47 0.30 12.84 5.29 16.14 c 0.37 0.24 1.19 0.54 1.19 0.76 z" style="fill:rgb(0,0,0);fill-opacity:1;stroke-width:1px;stroke:none;stroke-opacity:1;"></path></svg></g></g></g><g><g><g><g><g><g><g transform="matrix(1,0,0,1,329.08331298828125,121.92666259765625)"><path transform="matrix(0.02941,0,0,-0.02941,0,0)" d="M105 664L160 662C184 661 195 653 195 635L112 125C95 34 94 31 54 28L13 25L9 -3L51 -2C92 -1 123 0 141 0C158 0 187 -1 227 -2L280 -3L283 25L218 28C192 29 182 37 182 58C182 67 183 74 186 93L284 648C320 654 336 656 355 656C457 656 506 612 506 519C506 411 434 323 346 323C324 323 304 328 267 342L269 311C306 293 326 288 355 288C484 288 594 405 594 541C594 642 531 695 412 692L108 692ZM978 365C981 403 986 435 994 476C983 481 979 482 974 482C943 482 912 458 876 407C837 351 798 291 782 256L814 408C818 425 820 438 820 450C820 470 812 482 797 482C776 482 738 461 664 408L636 388L643 368L675 389C703 407 714 412 723 412C733 412 740 403 740 390C740 332 697 126 657 -2L667 -9C682 -4 698 -1 721 4L734 6L760 126C778 209 801 262 845 319C879 363 906 384 928 384C943 384 953 379 964 365ZM1277 469C1131 469 1030 366 1030 217C1030 76 1119 -20 1248 -20C1402 -20 1512 87 1512 237C1512 372 1414 469 1277 469ZM1259 436C1351 436 1419 336 1419 200C1419 85 1368 13 1287 13C1189 13 1123 109 1123 251C1123 371 1171 436 1259 436ZM1177 506L1217 506L1361 596C1394 617 1401 625 1401 643C1401 662 1387 677 1370 677C1355 677 1337 666 1315 644ZM1668 390L1612 107C1611 99 1599 61 1599 31C1599 6 1610 -9 1629 -9C1664 -9 1699 11 1777 74L1808 99L1798 117L1753 86C1724 66 1704 56 1693 56C1684 56 1679 64 1679 76C1679 102 1693 183 1722 328L1735 390L1842 390L1853 440C1815 436 1781 434 1743 434C1759 528 1770 577 1788 631L1777 646C1757 634 1730 622 1699 610L1674 440C1630 419 1604 408 1586 403L1584 390ZM1892 152C1892 46 1937 -11 2020 -11C2075 -11 2135 15 2180 57C2242 116 2286 230 2286 331C2286 425 2236 482 2153 482C2049 482 1892 382 1892 152ZM2116 444C2177 444 2210 399 2210 315C2210 219 2179 113 2135 60C2117 39 2091 27 2060 27C2002 27 1968 72 1968 151C1968 264 2007 387 2056 427C2069 438 2092 444 2116 444ZM2342 388L2349 368L2381 389C2418 412 2421 414 2428 414C2439 414 2446 404 2446 389C2446 338 2405 145 2364 2L2371 -9C2396 -2 2419 4 2441 8C2460 134 2481 199 2527 268C2581 352 2656 414 2701 414C2712 414 2718 405 2718 390C2718 372 2715 351 2707 319L2655 107C2646 70 2642 47 2642 31C2642 6 2653 -9 2672 -9C2698 -9 2734 12 2832 85L2822 103L2796 86C2767 67 2745 56 2735 56C2728 56 2722 65 2722 76C2722 81 2723 92 2724 96L2790 372C2797 401 2801 429 2801 446C2801 469 2790 482 2770 482C2728 482 2659 444 2600 389C2562 354 2534 320 2482 247L2520 408C2524 426 2526 438 2526 449C2526 470 2518 482 2503 482C2482 482 2443 460 2370 408ZM2904 148C2899 97 2893 62 2882 16C2920 -2 2954 -11 2989 -11C3038 -11 3084 7 3135 47C3186 87 3207 124 3207 174C3207 228 3175 257 3101 271L3058 279C2998 290 2979 307 2979 348C2979 401 3024 442 3081 442C3122 442 3160 424 3176 397L3176 342L3199 342C3203 377 3207 404 3218 455C3179 474 3151 482 3118 482C3066 482 3005 452 2957 404C2931 377 2920 352 2920 316C2920 260 2951 228 3017 215L3080 203C3124 195 3140 177 3140 138C3140 73 3094 29 3023 29C2988 29 2957 40 2929 64L2929 148Z" stroke="rgb(0,0,0)" stroke-opacity="1" stroke-width="8" fill="rgb(0,0,0)" fill-opacity="1"></path></g></g><g><g transform="matrix(1,0,0,1,425.0333251953125,121.91)"><path transform="matrix(0.02941,0,0,-0.02941,0,0)" d="M146 266C146 526 243 632 301 700L282 726C225 675 60 542 60 266C60 159 85 58 133 -32C168 -99 200 -138 282 -215L301 -194C255 -137 146 -15 146 266Z" stroke="rgb(0,0,0)" stroke-opacity="1" stroke-width="8" fill="rgb(0,0,0)" fill-opacity="1"></path></g></g><g><g transform="matrix(1,0,0,1,434.79998779296875,121.92666259765625)"><path transform="matrix(0.02941,0,0,-0.02941,0,0)" d="M604 241L604 300L364 300L364 538L305 538L305 300L65 300L65 241L305 241L305 0L364 0L364 241Z" stroke="rgb(0,0,0)" stroke-opacity="1" stroke-width="8" fill="rgb(0,0,0)" fill-opacity="1"></path></g></g><g><g transform="matrix(1,0,0,1,454.45001220703125,121.91)"><path transform="matrix(0.02941,0,0,-0.02941,0,0)" d="M51 726L32 700C87 636 187 526 187 266C187 -10 83 -131 32 -194L51 -215C104 -165 273 -23 273 265C273 542 108 675 51 726Z" stroke="rgb(0,0,0)" stroke-opacity="1" stroke-width="8" fill="rgb(0,0,0)" fill-opacity="1"></path></g></g></g></g><g><g></g></g><g><g><g><g transform="matrix(1,0,0,1,329.08331298828125,157.97666564941406)"><path transform="matrix(0.02941,0,0,-0.02941,0,0)" d="M582 103L237 692L75 692L70 664L105 662C150 660 184 615 185 606L92 102C80 40 74 32 38 28L7 25L2 -3L113 0C125 0 126 0 223 -3L228 25L186 28C146 31 137 39 137 72C137 80 138 91 140 102L220 566L558 -11L608 -11L702 542C723 655 725 659 762 662L799 664L802 691L589 692L584 664L631 662C657 661 667 654 667 638C667 631 584 116 582 103ZM1027 -20C1105 -20 1186 24 1194 36L1214 70L1201 80C1137 42 1114 33 1071 33C1006 33 952 62 924 111C905 144 898 172 896 230L1042 230C1111 230 1154 233 1223 244C1224 258 1225 267 1225 279C1225 394 1151 469 1039 469C1002 469 959 456 918 432C836 385 803 323 803 219C803 24 939 -20 1027 -20ZM1136 267C1084 265 1060 264 1024 264C978 264 952 265 898 270C898 317 902 339 915 365C936 409 979 436 1027 436C1060 436 1086 423 1104 396C1126 363 1133 334 1136 267ZM986 677L861 510L896 510L1017 613L1138 510L1173 510L1048 677ZM1747 473L1740 482L1672 465L1662 414C1647 336 1622 268 1591 221C1532 130 1454 59 1414 59C1406 59 1401 68 1401 85C1401 99 1403 112 1408 137L1465 408C1468 424 1470 438 1470 451C1470 470 1461 482 1447 482C1427 482 1389 461 1315 408L1287 388L1294 368L1326 389C1354 407 1365 412 1374 412C1383 412 1391 403 1391 392C1391 388 1390 378 1389 374L1326 77C1324 68 1322 44 1322 30C1322 7 1337 -11 1357 -11C1420 -11 1541 101 1625 239L1588 97C1581 73 1577 46 1577 31C1577 6 1588 -9 1607 -9C1633 -9 1669 12 1767 85L1757 103L1731 86C1707 70 1681 59 1670 59C1662 59 1657 66 1657 76C1657 112 1732 416 1747 473ZM1935 390L1879 107C1878 99 1866 61 1866 31C1866 6 1877 -9 1896 -9C1931 -9 1966 11 2044 74L2075 99L2065 117L2020 86C1991 66 1971 56 1960 56C1951 56 1946 64 1946 76C1946 102 1960 183 1989 328L2002 390L2109 390L2120 440C2082 436 2048 434 2010 434C2026 528 2037 577 2055 631L2044 646C2024 634 1997 622 1966 610L1941 440C1897 419 1871 408 1853 403L1851 390ZM2510 365C2513 403 2518 435 2526 476C2515 481 2511 482 2506 482C2475 482 2444 458 2408 407C2369 351 2330 291 2314 256L2346 408C2350 425 2352 438 2352 450C2352 470 2344 482 2329 482C2308 482 2270 461 2196 408L2168 388L2175 368L2207 389C2235 407 2246 412 2255 412C2265 412 2272 403 2272 390C2272 332 2229 126 2189 -2L2199 -9C2214 -4 2230 -1 2253 4L2266 6L2292 126C2310 209 2333 262 2377 319C2411 363 2438 384 2460 384C2475 384 2485 379 2496 365ZM2547 152C2547 46 2592 -11 2675 -11C2730 -11 2790 15 2835 57C2897 116 2941 230 2941 331C2941 425 2891 482 2808 482C2704 482 2547 382 2547 152ZM2771 444C2832 444 2865 399 2865 315C2865 219 2834 113 2790 60C2772 39 2746 27 2715 27C2657 27 2623 72 2623 151C2623 264 2662 387 2711 427C2724 438 2747 444 2771 444ZM2997 388L3004 368L3036 389C3073 412 3076 414 3083 414C3094 414 3101 404 3101 389C3101 338 3060 145 3019 2L3026 -9C3051 -2 3074 4 3096 8C3115 134 3136 199 3182 268C3236 352 3311 414 3356 414C3367 414 3373 405 3373 390C3373 372 3370 351 3362 319L3310 107C3301 70 3297 47 3297 31C3297 6 3308 -9 3327 -9C3353 -9 3389 12 3487 85L3477 103L3451 86C3422 67 3400 56 3390 56C3383 56 3377 65 3377 76C3377 81 3378 92 3379 96L3445 372C3452 401 3456 429 3456 446C3456 469 3445 482 3425 482C3383 482 3314 444 3255 389C3217 354 3189 320 3137 247L3175 408C3179 426 3181 438 3181 449C3181 470 3173 482 3158 482C3137 482 3098 460 3025 408ZM3559 148C3554 97 3548 62 3537 16C3575 -2 3609 -11 3644 -11C3693 -11 3739 7 3790 47C3841 87 3862 124 3862 174C3862 228 3830 257 3756 271L3713 279C3653 290 3634 307 3634 348C3634 401 3679 442 3736 442C3777 442 3815 424 3831 397L3831 342L3854 342C3858 377 3862 404 3873 455C3834 474 3806 482 3773 482C3721 482 3660 452 3612 404C3586 377 3575 352 3575 316C3575 260 3606 228 3672 215L3735 203C3779 195 3795 177 3795 138C3795 73 3749 29 3678 29C3643 29 3612 40 3584 64L3584 148Z" stroke="rgb(0,0,0)" stroke-opacity="1" stroke-width="8" fill="rgb(0,0,0)" fill-opacity="1"></path></g></g><g><g transform="matrix(1,0,0,1,444.29998779296875,157.9600030517578)"><path transform="matrix(0.02941,0,0,-0.02941,0,0)" d="M146 266C146 526 243 632 301 700L282 726C225 675 60 542 60 266C60 159 85 58 133 -32C168 -99 200 -138 282 -215L301 -194C255 -137 146 -15 146 266Z" stroke="rgb(0,0,0)" stroke-opacity="1" stroke-width="8" fill="rgb(0,0,0)" fill-opacity="1"></path></g></g><g><g transform="matrix(1,0,0,1,454.066650390625,157.97666564941406)"><path transform="matrix(0.02941,0,0,-0.02941,0,0)" d="M263 689C108 689 29 566 29 324C29 207 50 106 85 57C120 8 176 -20 238 -20C389 -20 465 110 465 366C465 585 400 689 263 689ZM245 654C342 654 381 556 381 316C381 103 343 15 251 15C154 15 113 116 113 360C113 571 150 654 245 654Z" stroke="rgb(0,0,0)" stroke-opacity="1" stroke-width="8" fill="rgb(0,0,0)" fill-opacity="1"></path></g></g><g><g transform="matrix(1,0,0,1,468.75,157.9600030517578)"><path transform="matrix(0.02941,0,0,-0.02941,0,0)" d="M51 726L32 700C87 636 187 526 187 266C187 -10 83 -131 32 -194L51 -215C104 -165 273 -23 273 265C273 542 108 675 51 726Z" stroke="rgb(0,0,0)" stroke-opacity="1" stroke-width="8" fill="rgb(0,0,0)" fill-opacity="1"></path></g></g></g></g><g><g></g></g><svg x="307.75" overflow="visible" y="91.75" height="72.85000610351562" width="14.699996948242188"><path d=" M 14.44 2.94 c 0.00 -0.06 -0.09 -0.10 -0.21 -0.10 c -0.26 0.00 -0.76 0.16 -0.88 0.20 c -5.23 1.86 -6.21 5.76 -6.21 12.82 v 1.04 h 2.79 v -2.22 c 0.00 -3.80 0.21 -8.92 3.68 -11.22 c 0.25 -0.17 0.82 -0.37 0.82 -0.53 z  M 7.15 15.86 v 13.90 h 2.79 v -13.90 z  M 9.94 29.76 h -2.79 v 1.02 c 0.00 5.14 -4.74 6.33 -4.76 6.33 v 0.04 c 0.03 0.00 4.76 1.29 4.76 6.41 h 2.79 c 0.00 -1.82 -0.15 -4.96 -5.12 -6.39 c 4.97 -1.39 5.12 -4.55 5.12 -6.39 v -1.02 z  M 7.15 43.09 v 13.90 h 2.79 v -13.90 z" style="fill:rgb(0,0,0);fill-opacity:1;stroke-width:1px;stroke:none;stroke-opacity:1;"></path><path d=" M 14.44 69.91 c 0.00 0.06 -0.09 0.10 -0.21 0.10 c -0.26 0.00 -0.76 -0.16 -0.88 -0.20 c -5.23 -1.86 -6.21 -5.76 -6.21 -12.82 v -1.04 h 2.79 v 2.22 c 0.00 3.80 0.21 8.92 3.68 11.22 c 0.25 0.17 0.82 0.37 0.82 0.53 z" style="fill:rgb(0,0,0);fill-opacity:1;stroke-width:1px;stroke:none;stroke-opacity:1;"></path></svg></g></g></g></svg>
</svg>
